<?xml version="1.0" standalone="no"?>
<!DOCTYPE svg PUBLIC "-//W3C//DTD SVG 20010904//EN"
 "http://www.w3.org/TR/2001/REC-SVG-20010904/DTD/svg10.dtd">
<svg version="1.0" xmlns="http://www.w3.org/2000/svg"
 width="700.000000pt" height="700.000000pt" viewBox="0 0 700.000000 700.000000"
 preserveAspectRatio="xMidYMid meet">
<metadata>
Created by potrace 1.14, written by Peter Selinger 2001-2017
</metadata>
<g transform="translate(0.000000,700.000000) scale(0.100000,-0.100000)"
fill="#000000" stroke="none">
<path d="M2135 6985 c-187 -41 -346 -144 -449 -288 -105 -149 -152 -303 -149
-490 2 -95 23 -179 68 -274 30 -64 33 -76 24 -110 -6 -21 -58 -207 -116 -413
-58 -206 -107 -381 -108 -390 -2 -8 -22 -78 -43 -155 -77 -272 -203 -720 -207
-735 -2 -8 -67 -242 -145 -520 -78 -278 -143 -512 -145 -520 -2 -8 -22 -80
-45 -160 -23 -80 -43 -152 -45 -160 -5 -22 -161 -577 -196 -700 -17 -58 -32
-112 -34 -120 -2 -9 -31 -115 -65 -235 -88 -312 -134 -478 -255 -910 -58 -209
-112 -402 -120 -430 -8 -27 -34 -117 -56 -200 -23 -82 -44 -155 -46 -162 -3
-8 5 -9 29 -3 49 12 452 125 840 236 86 25 164 47 175 49 18 4 937 262 1028
289 28 8 140 40 250 71 110 30 223 62 250 70 28 8 203 58 390 110 187 53 378
107 425 120 333 94 489 138 585 165 61 17 133 38 160 45 28 8 284 80 570 161
286 80 534 150 550 154 17 4 175 49 353 99 l323 92 62 -20 c390 -129 857 98
977 475 59 183 14 480 -142 949 -241 728 -602 1434 -997 1955 -168 221 -458
533 -660 710 -227 199 -534 419 -771 552 -25 14 -63 35 -85 48 -51 29 -373
190 -379 190 -3 0 -34 13 -70 29 -185 85 -582 229 -776 282 -201 55 -338 89
-420 104 -14 3 -61 12 -105 20 -172 32 -341 40 -430 20z m400 -560 c321 -70
757 -210 1013 -327 34 -15 65 -28 68 -28 7 0 271 -132 352 -177 476 -260 957
-660 1302 -1083 25 -30 47 -57 50 -60 43 -41 328 -457 395 -575 16 -27 58
-102 93 -165 148 -261 311 -627 435 -975 103 -287 200 -615 199 -672 -2 -141
-228 -200 -301 -78 -10 17 -31 71 -45 120 -127 423 -282 823 -452 1165 -163
327 -275 513 -489 806 -161 221 -499 576 -680 716 -16 12 -36 29 -44 36 -67
65 -365 269 -541 372 -449 260 -997 478 -1579 625 -120 30 -143 43 -166 92
-40 84 18 230 98 248 51 10 65 10 117 -2 30 -6 109 -24 175 -38z m-207 -909
c236 -67 561 -178 707 -241 17 -7 64 -27 105 -45 215 -92 479 -236 665 -360
210 -141 352 -258 536 -440 498 -494 851 -1130 1155 -2084 29 -92 51 -172 48
-177 -3 -5 -10 -9 -17 -9 -10 0 -104 -26 -632 -175 -249 -70 -721 -203 -960
-270 -186 -53 -906 -256 -1335 -377 -118 -33 -260 -73 -315 -88 -55 -16 -158
-45 -230 -65 -141 -40 -261 -74 -285 -79 -8 -2 -96 -27 -195 -56 -99 -29 -187
-53 -195 -55 -12 -3 -285 -80 -491 -139 l-47 -13 10 36 c5 20 23 83 40 141 16
58 32 112 34 120 5 25 116 421 261 935 124 444 184 658 188 675 5 21 82 294
100 355 8 28 42 149 75 270 34 121 72 258 85 305 38 133 171 610 216 770 22
80 64 231 94 335 51 182 201 721 212 758 2 9 7 17 10 17 3 0 75 -20 161 -44z"/>
<path d="M2794 4826 c-261 -59 -450 -289 -458 -555 -9 -318 248 -590 562 -594
170 -3 291 41 410 148 344 309 209 862 -243 996 -56 17 -207 19 -271 5z"/>
<path d="M2370 3485 c-221 -63 -360 -286 -319 -512 29 -159 179 -313 330 -341
107 -20 181 39 174 137 -5 66 -23 82 -136 129 -27 12 -58 35 -75 58 -25 32
-29 47 -29 99 0 50 5 69 27 102 38 58 85 77 183 75 89 -3 121 7 149 44 46 63
25 154 -44 193 -53 30 -182 37 -260 16z"/>
<path d="M3963 3486 c-162 -32 -321 -156 -396 -307 -145 -294 -32 -636 258
-780 44 -22 89 -41 100 -43 11 -3 38 -8 60 -14 59 -13 195 -7 257 12 205 65
357 220 407 417 107 418 -260 801 -686 715z"/>
<path d="M3000 2608 c-27 -14 -43 -30 -54 -59 -34 -83 -14 -133 71 -175 31
-16 65 -36 74 -44 78 -70 78 -200 0 -268 -41 -35 -85 -45 -159 -36 -119 15
-156 3 -188 -59 -54 -103 32 -200 187 -213 133 -12 266 36 357 129 82 85 119
166 129 283 13 172 -79 339 -233 421 -75 40 -132 46 -184 21z"/>
<path d="M1898 2335 c-1 -2 -23 -4 -48 -6 -96 -5 -201 -59 -277 -142 -79 -86
-114 -185 -109 -310 5 -136 63 -247 171 -329 75 -57 145 -81 245 -84 102 -4
172 14 248 63 232 148 273 457 89 669 -52 60 -169 120 -252 130 -22 3 -45 6
-52 9 -6 2 -13 2 -15 0z"/>
</g>
</svg>
